<svg width="90" height="72" viewBox="0 0 90 72" fill="none" xmlns="http://www.w3.org/2000/svg">
<style>
    @media (prefers-color-scheme: light) {
     .a { fill: #277482 } 
    }
  </style>
<g clip-path="url(#clip0_40_67)">
<path class="a" d="M4.31836 32.7806C3.47461 33.6233 3 34.761 3 35.9548V53.9322C3 55.126 3.47461 56.2664 4.31836 57.1091C5.16211 57.9518 6.30469 58.4265 7.5 58.4265H12V31.4604H7.5C6.30469 31.4604 5.16281 31.938 4.31836 32.7806ZM68.25 13.483H52.5V4.49435C52.5 2.01965 50.4778 0 48 0C45.5222 0 43.5 2.01965 43.5 4.49435V13.483H27.75C21.5344 13.483 16.5 18.5111 16.5 24.7189V62.9209C16.5 67.8899 20.5247 71.9095 25.5 71.9095H70.5C75.4753 71.9095 79.5 67.8899 79.5 62.9209V24.7189C79.5 18.5111 74.4797 13.483 68.25 13.483ZM39 58.4265H30V53.9322H39V58.4265ZM34.5 41.5727C31.3922 41.5727 28.875 39.0587 28.875 35.9548C28.875 32.8509 31.3922 30.3368 34.5 30.3368C37.6078 30.3368 40.125 32.8509 40.125 35.9548C40.125 39.0587 37.6078 41.5727 34.5 41.5727ZM52.5 58.4265H43.5V53.9322H52.5V58.4265ZM66 58.4265H57V53.9322H66V58.4265ZM61.5 41.5727C58.3894 41.5727 55.875 39.0615 55.875 35.9548C55.875 32.8481 58.3922 30.3368 61.5 30.3368C64.6078 30.3368 67.125 32.8509 67.125 35.9548C67.125 39.0587 64.6078 41.5727 61.5 41.5727ZM91.6781 32.7806C90.8344 31.938 89.6953 31.4604 88.5 31.4604H84V58.4265H88.5C89.6953 58.4265 90.8372 57.9525 91.6809 57.1098C92.5247 56.2671 93 55.126 93 53.9322V35.9548C93 34.761 92.5219 33.6233 91.6781 32.7806Z" fill="#FFCB9A"/>
</g>
<defs>
<clipPath id="clip0_40_67">
<rect width="90" height="71.9095" fill="white"/>
</clipPath>
</defs>
</svg>
