<svg width="61" height="60" viewBox="0 0 61 60" fill="none" xmlns="http://www.w3.org/2000/svg">
<path fill-rule="evenodd" clip-rule="evenodd" d="M30.8826 0.527344C14.3076 0.527344 0.882568 13.9523 0.882568 30.5273C0.882568 43.8023 9.47007 55.0148 21.3951 58.9898C22.8951 59.2523 23.4576 58.3523 23.4576 57.5648C23.4576 56.8523 23.4201 54.4898 23.4201 51.9773C15.8826 53.3648 13.9326 50.1398 13.3326 48.4523C12.9951 47.5898 11.5326 44.9273 10.2576 44.2148C9.20757 43.6523 7.70757 42.2648 10.2201 42.2273C12.5826 42.1898 14.2701 44.4023 14.8326 45.3023C17.5326 49.8398 21.8451 48.5648 23.5701 47.7773C23.8326 45.8273 24.6201 44.5148 25.4826 43.7648C18.8076 43.0148 11.8326 40.4273 11.8326 28.9523C11.8326 25.6898 12.9951 22.9898 14.9076 20.8898C14.6076 20.1398 13.5576 17.0648 15.2076 12.9398C15.2076 12.9398 17.7201 12.1523 23.4576 16.0148C25.8576 15.3398 28.4076 15.0023 30.9576 15.0023C33.5076 15.0023 36.0576 15.3398 38.4576 16.0148C44.1951 12.1148 46.7076 12.9398 46.7076 12.9398C48.3576 17.0648 47.3076 20.1398 47.0076 20.8898C48.9201 22.9898 50.0826 25.6523 50.0826 28.9523C50.0826 40.4648 43.0701 43.0148 36.3951 43.7648C37.4826 44.7023 38.4201 46.5023 38.4201 49.3148C38.4201 53.3273 38.3826 56.5523 38.3826 57.5648C38.3826 58.3523 38.9451 59.2898 40.4451 58.9898C46.4005 56.9791 51.5755 53.1516 55.2417 48.0458C58.9079 42.94 60.8808 36.8131 60.8826 30.5273C60.8826 13.9523 47.4576 0.527344 30.8826 0.527344Z" fill="#FF7B5E"/>
</svg>
