<svg width="1229" height="720" viewBox="0 0 1229 720" fill="none" xmlns="http://www.w3.org/2000/svg">
<path d="M-218.803 639.162C-221.934 622.604 -131.128 380.367 150.864 352.116C432.856 323.865 559.281 352.445 727.109 268.79C861.371 201.865 1066.65 185.46 1152.5 185.623M-180.574 663.862C-183.705 647.304 -92.8988 405.067 189.093 376.816C471.084 348.565 597.51 377.146 765.338 293.49C899.6 226.565 1104.88 210.16 1190.73 210.323M-147.123 688.451C-150.254 671.893 -59.4472 429.656 222.544 401.405C504.536 373.154 630.962 401.735 798.79 318.079C933.052 251.154 1138.33 234.749 1224.18 234.912" stroke="#277482" stroke-width="5"/>
<path d="M-386.49 484.827C-389.623 468.269 -298.859 226.041 -16.8768 197.841C265.105 169.641 391.534 198.246 559.345 114.619C693.593 47.7172 898.864 31.3491 984.718 31.5278M-348.257 509.535C-351.391 492.976 -260.627 250.749 21.3556 222.549C303.338 194.349 429.766 222.954 597.577 139.327C731.826 72.425 937.096 56.0569 1022.95 56.2355M-314.802 534.131C-317.936 517.572 -227.171 275.345 54.8108 247.145C336.793 218.945 463.222 247.55 631.032 163.923C765.281 97.0209 970.552 80.6528 1056.41 80.8314" stroke="#FFCB9A" stroke-width="5"/>
<path d="M-301.495 559.619C-304.626 543.092 -213.911 301.309 67.885 273.118C349.681 244.928 476.024 273.459 643.727 189.964C777.889 123.168 983.024 106.799 1068.82 106.963M-263.29 584.274C-266.421 567.747 -175.705 325.964 106.091 297.773C387.886 269.583 514.229 298.114 681.932 214.619C816.095 147.823 1021.23 131.454 1107.03 131.618M-229.858 608.818C-232.989 592.291 -142.273 350.508 139.523 322.317C421.318 294.127 547.661 322.658 715.364 239.163C849.527 172.367 1054.66 155.998 1140.46 156.163" stroke="#FF5E5E" stroke-width="5"/>
</svg>
