<svg width="61" height="61" viewBox="0 0 61 61" fill="none" xmlns="http://www.w3.org/2000/svg">
<path fill-rule="evenodd" clip-rule="evenodd" d="M3.38257 7.88212C3.38257 6.66345 3.86668 5.49469 4.72841 4.63296C5.59014 3.77123 6.7589 3.28712 7.97757 3.28712H53.7826C54.3865 3.28613 54.9847 3.40427 55.5429 3.63478C56.1011 3.86529 56.6084 4.20364 57.0357 4.63046C57.463 5.05727 57.8019 5.56417 58.033 6.12214C58.2641 6.68011 58.3829 7.27818 58.3826 7.88212V53.6871C58.3832 54.2912 58.2648 54.8894 58.034 55.4477C57.8032 56.0059 57.4646 56.5131 57.0376 56.9404C56.6106 57.3676 56.1035 57.7065 55.5454 57.9376C54.9873 58.1687 54.3891 58.2874 53.7851 58.2871H7.97757C7.37393 58.2871 6.77622 58.1682 6.21856 57.9371C5.66091 57.706 5.15425 57.3673 4.72753 56.9404C4.30081 56.5134 3.9624 56.0066 3.73162 55.4488C3.50085 54.891 3.38224 54.2932 3.38257 53.6896V7.88212ZM25.1526 24.2571H32.6001V27.9971C33.6751 25.8471 36.4251 23.9121 40.5576 23.9121C48.4801 23.9121 50.3576 28.1946 50.3576 36.0521V50.6071H42.3401V37.8421C42.3401 33.3671 41.2651 30.8421 38.5351 30.8421C34.7476 30.8421 33.1726 33.5646 33.1726 37.8421V50.6071H25.1526V24.2571ZM11.4026 50.2646H19.4226V23.9121H11.4026V50.2621V50.2646ZM20.5701 15.3171C20.5852 16.0038 20.463 16.6866 20.2107 17.3254C19.9583 17.9642 19.5809 18.5462 19.1006 19.0372C18.6203 19.5282 18.0468 19.9183 17.4137 20.1846C16.7806 20.451 16.1007 20.5882 15.4138 20.5882C14.727 20.5882 14.047 20.451 13.4139 20.1846C12.7808 19.9183 12.2073 19.5282 11.727 19.0372C11.2467 18.5462 10.8693 17.9642 10.617 17.3254C10.3646 16.6866 10.2424 16.0038 10.2576 15.3171C10.2872 13.9693 10.8435 12.6866 11.8073 11.7438C12.771 10.8011 14.0656 10.2732 15.4138 10.2732C16.762 10.2732 18.0566 10.8011 19.0204 11.7438C19.9841 12.6866 20.5404 13.9693 20.5701 15.3171Z" fill="#FF7B5E"/>
</svg>
