<svg width="57" height="47" viewBox="0 0 57 47" fill="none" xmlns="http://www.w3.org/2000/svg">
<path d="M56.8824 6.18766C54.7949 7.11266 52.5524 7.73766 50.1949 8.02016C52.6274 6.56464 54.4473 4.27383 55.3149 1.57516C53.0295 2.93264 50.5283 3.88815 47.9199 4.40016C46.1659 2.52733 43.8426 1.28598 41.3107 0.868848C38.7789 0.451718 36.1802 0.882142 33.918 2.0933C31.6559 3.30445 29.8569 5.22857 28.8003 7.56692C27.7438 9.90528 27.4888 12.527 28.0749 15.0252C23.4441 14.7927 18.914 13.589 14.7785 11.4924C10.643 9.39581 6.99453 6.45307 4.06993 2.85516C3.06993 4.58016 2.49493 6.58016 2.49493 8.71016C2.49382 10.6277 2.96601 12.5158 3.86963 14.207C4.77324 15.8982 6.08034 17.3403 7.67493 18.4052C5.82562 18.3463 4.01711 17.8466 2.39993 16.9477V17.0977C2.39975 19.787 3.33001 22.3936 5.03289 24.4752C6.73576 26.5567 9.10636 27.985 11.7424 28.5177C10.0269 28.982 8.22828 29.0503 6.48243 28.7177C7.22617 31.0317 8.67492 33.0552 10.6258 34.505C12.5768 35.9547 14.9322 36.7581 17.3624 36.8027C13.237 40.0412 8.14215 41.7979 2.89743 41.7902C1.96838 41.7904 1.04012 41.7362 0.117432 41.6277C5.44112 45.0506 11.6383 46.8672 17.9674 46.8602C39.3924 46.8602 51.1049 29.1152 51.1049 13.7252C51.1049 13.2252 51.0924 12.7202 51.0699 12.2202C53.3482 10.5726 55.3147 8.5324 56.8774 6.19516L56.8824 6.18766Z" fill="#FF7B5E"/>
</svg>
