<svg width="1920" height="1371" viewBox="0 0 1920 1371" fill="none" xmlns="http://www.w3.org/2000/svg">
<path d="M2228.57 588.288C2215.46 573.018 1834.52 419.761 1414.3 541.211C994.074 662.661 849.127 751.144 528.612 768.273C272.199 781.976 -29.323 873.818 -148.032 918.027M2201.65 628.293C2188.55 613.023 1807.61 459.766 1387.39 581.216C967.162 702.666 822.215 791.149 501.699 808.278C245.286 821.981 -56.2354 913.823 -174.945 958.032M2181.24 665.754C2168.13 650.484 1787.2 497.227 1366.97 618.677C946.747 740.127 801.801 828.61 481.285 845.739C224.872 859.442 -76.6498 951.284 -195.359 995.493" stroke="#5ED8FF" stroke-width="5"/>
<path d="M2298.16 374.863C2285.06 359.591 1904.19 206.321 1484.03 327.808C1063.88 449.295 918.951 537.799 598.489 554.943C342.119 568.658 40.6449 660.528 -78.0458 704.749M2271.25 414.876C2258.15 399.604 1877.28 246.334 1457.13 367.821C1036.97 489.308 892.042 577.812 571.579 594.956C315.21 608.671 13.7357 700.541 -104.955 744.762M2250.84 452.344C2237.74 437.073 1856.87 283.803 1436.71 405.29C1016.55 526.777 871.63 615.281 551.167 632.425C294.797 646.14 -6.67643 738.01 -125.367 782.231" stroke="#FFD25E" stroke-width="5"/>
<path d="M2259.27 480.205C2246.19 464.961 1865.86 312.033 1445.97 433.432C1026.08 554.831 881.198 643.23 561.024 660.428C304.885 674.186 3.59844 765.985 -115.027 810.165M2232.34 520.161C2219.26 504.917 1838.93 351.989 1419.04 473.388C999.155 594.787 854.271 683.186 534.097 700.384C277.957 714.142 -23.3294 805.941 -141.955 850.121M2211.91 557.575C2198.83 542.331 1818.5 389.403 1398.61 510.802C978.721 632.201 833.836 720.6 513.662 737.798C257.523 751.556 -43.7636 843.355 -162.39 887.535" stroke="#FF5E5E" stroke-width="5"/>
</svg>
